<?xml version="1.0" encoding="UTF-8" standalone="no"?>
<!-- Created with Inkscape (http://www.inkscape.org/) -->

<svg
   width="512"
   height="512"
   viewBox="0 0 135.46665 135.46665"
   version="1.1"
   id="svg5"
   xml:space="preserve"
   inkscape:version="1.2.2 (b0a84865, 2022-12-01)"
   sodipodi:docname="favicon.svg"
   inkscape:export-filename="logo.png"
   inkscape:export-xdpi="3"
   inkscape:export-ydpi="3"
   xmlns:inkscape="http://www.inkscape.org/namespaces/inkscape"
   xmlns:sodipodi="http://sodipodi.sourceforge.net/DTD/sodipodi-0.dtd"
   xmlns:xlink="http://www.w3.org/1999/xlink"
   xmlns="http://www.w3.org/2000/svg"
   xmlns:svg="http://www.w3.org/2000/svg"><sodipodi:namedview
     id="namedview7"
     pagecolor="#505050"
     bordercolor="#eeeeee"
     borderopacity="1"
     inkscape:showpageshadow="0"
     inkscape:pageopacity="0"
     inkscape:pagecheckerboard="0"
     inkscape:deskcolor="#505050"
     inkscape:document-units="mm"
     showgrid="false"
     showguides="true"
     inkscape:zoom="1.4142136"
     inkscape:cx="261.98306"
     inkscape:cy="252.08356"
     inkscape:window-width="1652"
     inkscape:window-height="1051"
     inkscape:window-x="76"
     inkscape:window-y="38"
     inkscape:window-maximized="1"
     inkscape:current-layer="layer1" /><defs
     id="defs2"><linearGradient
       inkscape:collect="always"
       id="linearGradient817"><stop
         style="stop-color:#331155;stop-opacity:1;"
         offset="0"
         id="stop813" /><stop
         style="stop-color:#111111;stop-opacity:1;"
         offset="1"
         id="stop815" /></linearGradient><linearGradient
       inkscape:collect="always"
       xlink:href="#linearGradient817"
       id="linearGradient819"
       x1="0"
       y1="0"
       x2="135.46666"
       y2="135.46666"
       gradientUnits="userSpaceOnUse" /></defs><g
     inkscape:label="Layer 1"
     inkscape:groupmode="layer"
     id="layer1"><rect
       style="fill:url(#linearGradient819);stroke-width:0.264999;stop-color:#000000;fill-opacity:1"
       id="rect234"
       width="135.46666"
       height="135.46666"
       x="0"
       y="0" /><path
       d="m 100.81957,74.165633 -21.280514,26.600627 21.280514,26.60065 21.28051,-26.60065 z"
       style="fill:#000000;fill-opacity:1;stroke-width:0.413411"
       id="path3424-6" /><path
       d="m 44.787933,115.97359 c 0,4.7133 1.300937,9.42659 1.748989,10.91291 a 0.37407129,0.37407129 0 0 1 -0.365757,0.48047 H 32.009658 a 0.37407129,0.37407129 0 0 1 -0.365759,-0.47881 c 0.445562,-1.49379 1.749823,-6.25947 1.749823,-10.91457 -1.876174,1.35912 -4.044127,2.05988 -6.435688,2.05988 -6.941932,0 -12.965313,-5.82968 -12.530558,-12.85974 0.243562,-3.95269 2.760647,-7.344273 6.114818,-9.448215 3.366642,-2.113921 6.488059,-2.282668 9.279463,-1.604354 a 12.078345,12.078345 0 0 1 -2.863723,-7.822244 c 0,-7.493062 6.793133,-13.400065 14.555528,-11.898792 4.859601,0.938504 8.721679,4.931921 9.536323,9.812306 0.634259,3.786432 -0.495435,7.310184 -2.689157,9.90873 2.810522,-0.681639 5.95688,-0.505411 9.350119,1.647579 3.33838,2.119736 5.84715,5.503 6.076581,9.44905 0.407321,7.01093 -5.636007,12.81568 -12.562978,12.81568 -2.35831,0 -4.595256,-0.72902 -6.437349,-2.05988"
       style="fill:#000000;fill-opacity:1;stroke-width:0.413411"
       id="path3442-1" /><path
       d="m 105.79123,51.287447 c 0,0 10.23874,10.237917 18.35359,-2.039103 4.22285,-6.390801 1.35996,-12.616178 -3.14219,-16.918827 L 101.61825,13.241905 c -1.09063,-0.930192 -2.767299,-0.930192 -3.860419,0 L 78.094982,32.329517 c -3.868729,4.04828 -7.163881,10.513063 -2.892819,16.918827 8.15725,12.234625 18.352769,2.039103 18.352769,2.039103 0,5.226191 -1.487972,11.94285 -1.922726,13.786605 a 0.39984064,0.39984064 0 0 0 0.401505,0.487124 h 15.280409 a 0.39734684,0.39734684 0 0 0 0.399,-0.48546 c -0.43226,-1.849575 -1.92272,-8.595327 -1.92272,-13.788269"
       style="fill:#000000;fill-opacity:1;stroke-width:0.413411"
       id="path3451-8" /><path
       d="m 39.10621,22.683446 c 2.053235,-5.612732 6.398282,-10.231266 11.853903,-10.231266 4.591102,0 8.682612,2.316747 11.439099,6.138924 3.458083,4.796426 5.902846,15.473254 -1.665862,23.596419 -3.840465,4.122266 -21.62714,23.465907 -21.62714,23.465907 0,0 -17.786675,-19.344473 -21.62714,-23.465907 -7.5687087,-8.122335 -5.124777,-18.799993 -1.665033,-23.596419 2.756491,-3.823007 6.847998,-6.138924 11.438269,-6.138924 5.455622,0 9.800668,4.618534 11.853904,10.231266"
       style="font-variation-settings:normal;vector-effect:none;fill:#000000;fill-opacity:1;stroke-width:0.413409;stroke-linecap:butt;stroke-linejoin:miter;stroke-miterlimit:4;stroke-dasharray:none;stroke-dashoffset:0;stroke-opacity:1;-inkscape-stroke:none;stop-color:#000000"
       id="path3433-8" /><path
       d="m 36.870301,20.447537 c 2.053236,-5.612732 6.398283,-10.231265 11.853904,-10.231265 4.591102,0 8.682611,2.316746 11.439099,6.138923 3.458082,4.796426 5.902845,15.473254 -1.665863,23.596419 -3.840465,4.122266 -21.62714,23.465908 -21.62714,23.465908 0,0 -17.786675,-19.344474 -21.62714,-23.465908 -7.5687084,-8.122335 -5.124776,-18.799993 -1.665034,-23.596419 2.756492,-3.823007 6.847999,-6.138923 11.43827,-6.138923 5.455622,0 9.800668,4.618533 11.853904,10.231265"
       style="font-variation-settings:normal;vector-effect:none;fill:#dd0022;fill-opacity:1;stroke-width:0.413409;stroke-linecap:butt;stroke-linejoin:miter;stroke-miterlimit:4;stroke-dasharray:none;stroke-dashoffset:0;stroke-opacity:1;-inkscape-stroke:none;stop-color:#000000"
       id="path3433" /><path
       id="path3433-4"
       style="fill:#ffffff;fill-opacity:0.333333;stroke-width:0.413409"
       d="m 25.016397,10.21627 c -4.590266,0 -8.68178,2.315922 -11.43827,6.138925 -3.459738,4.796422 -5.9040835,15.4743 1.664618,23.596625 3.84046,4.121431 21.627555,23.465702 21.627555,23.465702 V 20.447121 C 34.817065,14.834396 30.472017,10.21627 25.016397,10.21627 Z" /><path
       d="m 42.552025,113.73767 c 0,4.71329 1.300936,9.42659 1.748988,10.91291 a 0.37407129,0.37407129 0 0 1 -0.365758,0.48046 H 29.773749 a 0.37407129,0.37407129 0 0 1 -0.365759,-0.4788 c 0.445562,-1.49379 1.749823,-6.25947 1.749823,-10.91457 -1.876174,1.35913 -4.044126,2.05988 -6.435688,2.05988 -6.941931,0 -12.965312,-5.82968 -12.530558,-12.85974 0.243562,-3.952683 2.760647,-7.344262 6.114818,-9.448204 3.366642,-2.113921 6.488059,-2.282667 9.279463,-1.604353 a 12.078345,12.078345 0 0 1 -2.863723,-7.822245 c 0,-7.493062 6.793133,-13.400064 14.555529,-11.898792 4.8596,0.938504 8.721678,4.931922 9.536322,9.812306 0.634259,3.786432 -0.495435,7.310184 -2.689156,9.908731 2.810521,-0.68164 5.956878,-0.505412 9.350118,1.647578 3.338381,2.119736 5.84715,5.503003 6.076582,9.449039 0.407321,7.01093 -5.636009,12.81568 -12.562978,12.81568 -2.358311,0 -4.595257,-0.72902 -6.437351,-2.05988"
       style="fill:#777777;fill-opacity:1;stroke-width:0.413411"
       id="path3442" /><path
       d="m 104.67327,49.051538 c 0,0 10.23873,10.237917 18.35359,-2.039103 4.22286,-6.3908 1.35996,-12.616177 -3.14219,-16.918827 L 100.50029,11.005996 c -1.090623,-0.930191 -2.767294,-0.930191 -3.860413,0 L 76.977028,30.093608 c -3.868729,4.04828 -7.163881,10.513063 -2.892819,16.918827 8.157249,12.234625 18.352769,2.039103 18.352769,2.039103 0,5.226192 -1.487973,11.94285 -1.922726,13.786605 a 0.39984064,0.39984064 0 0 0 0.401504,0.487124 h 15.280394 a 0.39734684,0.39734684 0 0 0 0.39901,-0.48546 c -0.43226,-1.849574 -1.92273,-8.595326 -1.92273,-13.788269"
       style="fill:#777777;fill-opacity:1;stroke-width:0.413411"
       id="path3451" /><path
       d="M 98.583661,71.929724 77.303147,98.530356 98.583661,125.13099 119.86416,98.530356 Z"
       style="fill:#dd0022;fill-opacity:1;stroke-width:0.413411"
       id="path3424" /><path
       id="path3442-6"
       style="fill:#ffffff;fill-opacity:0.2;stroke-width:0.413411"
       d="m 36.773038,71.930005 c -6.662491,0.04422 -12.050292,5.459914 -12.050292,12.133418 a 12.078345,12.078345 0 0 0 2.863725,7.822247 c -2.791402,-0.678314 -5.913448,-0.509569 -9.280086,1.60435 -3.354169,2.103939 -5.870425,5.495735 -6.113988,9.44841 -0.434752,7.03005 5.588426,12.85974 12.530349,12.85974 2.39156,0 4.558895,-0.70139 6.435067,-2.0605 0,4.6551 -1.304263,9.42078 -1.749823,10.91457 a 0.37407129,0.37407129 0 0 0 0.365759,0.47902 h 7.096963 V 71.931045 c -0.03247,-4e-5 -0.06527,-0.0013 -0.09768,-10e-4 z" /><path
       id="path3451-5"
       style="fill:#ffffff;fill-opacity:0.2;stroke-width:0.413411"
       d="m 98.555746,10.309392 c -0.686935,0.0034 -1.37362,0.234585 -1.916077,0.696188 L 76.977028,30.093608 c -3.868726,4.048275 -7.163875,10.512655 -2.892819,16.918413 8.157241,12.234611 18.353395,2.038686 18.353395,2.038686 0,5.226188 -1.488599,11.942854 -1.923352,13.786605 a 0.39984064,0.39984064 0 0 0 0.402128,0.487334 h 7.639366 z" /><path
       id="path3424-8"
       style="fill:#ffffff;fill-opacity:0.333333;stroke-width:0.413411"
       d="m 98.551439,71.92973 -21.280501,26.600626 21.280501,26.600624 0.0322,-0.0406 V 71.970255 Z" /></g></svg>
