<?xml version="1.0" encoding="UTF-8" standalone="no"?>
<!-- Created with Inkscape (http://www.inkscape.org/) -->

<svg
   width="512"
   height="512"
   viewBox="0 0 135.46665 135.46665"
   version="1.1"
   id="svg5"
   xml:space="preserve"
   inkscape:version="1.2.2 (b0a84865, 2022-12-01)"
   sodipodi:docname="logo.svg"
   inkscape:export-filename="logo.png"
   inkscape:export-xdpi="96"
   inkscape:export-ydpi="96"
   xmlns:inkscape="http://www.inkscape.org/namespaces/inkscape"
   xmlns:sodipodi="http://sodipodi.sourceforge.net/DTD/sodipodi-0.dtd"
   xmlns:xlink="http://www.w3.org/1999/xlink"
   xmlns="http://www.w3.org/2000/svg"
   xmlns:svg="http://www.w3.org/2000/svg"><sodipodi:namedview
     id="namedview7"
     pagecolor="#505050"
     bordercolor="#eeeeee"
     borderopacity="1"
     inkscape:showpageshadow="0"
     inkscape:pageopacity="0"
     inkscape:pagecheckerboard="0"
     inkscape:deskcolor="#505050"
     inkscape:document-units="mm"
     showgrid="false"
     showguides="true"
     inkscape:zoom="1.4142136"
     inkscape:cx="260.56885"
     inkscape:cy="251.37646"
     inkscape:window-width="1920"
     inkscape:window-height="1027"
     inkscape:window-x="1728"
     inkscape:window-y="25"
     inkscape:window-maximized="1"
     inkscape:current-layer="layer1" /><defs
     id="defs2"><linearGradient
       inkscape:collect="always"
       id="linearGradient817"><stop
         style="stop-color:#331155;stop-opacity:1;"
         offset="0"
         id="stop813" /><stop
         style="stop-color:#111111;stop-opacity:1;"
         offset="1"
         id="stop815" /></linearGradient><linearGradient
       inkscape:collect="always"
       xlink:href="#linearGradient817"
       id="linearGradient819"
       x1="0"
       y1="0"
       x2="135.46666"
       y2="135.46666"
       gradientUnits="userSpaceOnUse" /></defs><g
     inkscape:label="Layer 1"
     inkscape:groupmode="layer"
     id="layer1"><rect
       style="fill:url(#linearGradient819);stroke-width:0.264999;stop-color:#000000;fill-opacity:1"
       id="rect234"
       width="135.46666"
       height="135.46666"
       x="0"
       y="0" /><path
       d="M 99.082069,73.879039 78.936443,99.061062 99.082069,124.2431 119.22769,99.061062 Z"
       style="fill:#000000;fill-opacity:1;stroke-width:0.413411"
       id="path3424-6" /><path
       d="m 46.038593,113.45738 c 0,4.46194 1.231558,8.92388 1.655716,10.33093 a 0.35412211,0.35412211 0 0 1 -0.346252,0.45484 H 33.941782 a 0.35412211,0.35412211 0 0 1 -0.346253,-0.45327 c 0.4218,-1.41413 1.656505,-5.92565 1.656505,-10.3325 -1.776118,1.28665 -3.828454,1.95003 -6.092474,1.95003 -6.571719,0 -12.273873,-5.51879 -11.862304,-12.17393 0.230573,-3.741899 2.613422,-6.952606 5.788716,-8.944345 3.187098,-2.001185 6.142051,-2.160933 8.784589,-1.518793 A 11.434209,11.434209 0 0 1 29.15956,85.365257 c 0,-7.093459 6.430857,-12.685441 13.779284,-11.264231 4.600439,0.888454 8.256553,4.668903 9.027752,9.289016 0.600434,3.584503 -0.469014,6.920333 -2.545744,9.3803 2.660637,-0.645288 5.639199,-0.478458 8.851478,1.559713 3.160345,2.006691 5.535322,5.209529 5.752518,8.945135 0.385598,6.63704 -5.335441,12.13222 -11.892996,12.13222 -2.232542,0 -4.350192,-0.69014 -6.094047,-1.95003"
       style="fill:#000000;fill-opacity:1;stroke-width:0.413411"
       id="path3442-1" /><path
       d="m 103.78859,52.220945 c 0,0 9.69271,9.691929 17.3748,-1.930359 3.99765,-6.049979 1.28743,-11.943358 -2.97462,-16.016548 L 99.838154,16.204367 c -1.032463,-0.880585 -2.619717,-0.880585 -3.654541,0 L 77.569381,34.274038 c -3.66241,3.832386 -6.781832,9.952403 -2.738545,16.016548 7.722224,11.582154 17.374018,1.930359 17.374018,1.930359 0,4.947479 -1.408619,11.305939 -1.820187,13.051367 a 0.37851718,0.37851718 0 0 0 0.380092,0.461145 h 14.465501 a 0.37615638,0.37615638 0 0 0 0.37773,-0.459571 C 105.19878,63.52295 103.7878,57.136948 103.7878,52.220945"
       style="fill:#000000;fill-opacity:1;stroke-width:0.413411"
       id="path3451-8" /><path
       d="m 40.659876,25.142391 c 1.943737,-5.313405 6.057062,-9.685633 11.221736,-9.685633 4.346259,0 8.219568,2.193195 10.829053,5.811536 3.273663,4.540633 5.588048,14.648067 -1.577022,22.338024 -3.635654,3.902426 -20.473767,22.214473 -20.473767,22.214473 0,0 -16.838114,-18.312835 -20.473768,-22.214473 -7.16507,-7.689171 -4.851472,-17.797391 -1.576237,-22.338024 2.609488,-3.619127 6.482796,-5.811536 10.828268,-5.811536 5.164675,0 9.277999,4.372228 11.221737,9.685633"
       style="font-variation-settings:normal;vector-effect:none;fill:#000000;fill-opacity:1;stroke-width:0.413409;stroke-linecap:butt;stroke-linejoin:miter;stroke-miterlimit:4;stroke-dasharray:none;stroke-dashoffset:0;stroke-opacity:1;-inkscape-stroke:none;stop-color:#000000"
       id="path3433-8" /><path
       d="m 38.543208,23.025723 c 1.943737,-5.313405 6.057062,-9.685633 11.221736,-9.685633 4.346259,0 8.219568,2.193195 10.829053,5.811536 3.273663,4.540633 5.588048,14.648067 -1.577022,22.338024 -3.635654,3.902426 -20.473767,22.214473 -20.473767,22.214473 0,0 -16.838114,-18.312835 -20.473768,-22.214473 -7.16507,-7.689171 -4.851472,-17.797391 -1.576237,-22.338024 2.609488,-3.619127 6.482796,-5.811536 10.828268,-5.811536 5.164675,0 9.277999,4.372228 11.221737,9.685633"
       style="font-variation-settings:normal;vector-effect:none;fill:#dd0022;fill-opacity:1;stroke-width:0.413409;stroke-linecap:butt;stroke-linejoin:miter;stroke-miterlimit:4;stroke-dasharray:none;stroke-dashoffset:0;stroke-opacity:1;-inkscape-stroke:none;stop-color:#000000"
       id="path3433" /><path
       id="path3433-4"
       style="fill:#ffffff;fill-opacity:0.333333;stroke-width:0.413409"
       d="m 27.321471,13.340089 c -4.345468,0 -8.218782,2.192414 -10.828268,5.811537 -3.275231,4.540629 -5.58922,14.649057 1.575843,22.33822 3.63565,3.901634 20.47416,22.214277 20.47416,22.214277 V 23.025329 C 36.59947,17.71193 32.486143,13.340089 27.321471,13.340089 Z" /><path
       d="m 43.921925,111.3407 c 0,4.46194 1.231558,8.92388 1.655716,10.33093 a 0.35412211,0.35412211 0 0 1 -0.346252,0.45484 H 31.825114 a 0.35412211,0.35412211 0 0 1 -0.346253,-0.45327 c 0.4218,-1.41413 1.656505,-5.92565 1.656505,-10.3325 -1.776118,1.28665 -3.828454,1.95003 -6.092474,1.95003 -6.571719,0 -12.273873,-5.51879 -11.862304,-12.17393 0.230573,-3.741887 2.613422,-6.952594 5.788716,-8.944333 3.187098,-2.001185 6.142051,-2.160933 8.784589,-1.518793 a 11.434209,11.434209 0 0 1 -2.711001,-7.405085 c 0,-7.093459 6.430857,-12.685441 13.779284,-11.264231 4.600439,0.888454 8.256553,4.668903 9.027752,9.289016 0.600434,3.584503 -0.469014,6.920333 -2.545744,9.3803 2.660637,-0.645288 5.639199,-0.478458 8.851478,1.559713 3.160345,2.006691 5.535322,5.209529 5.752518,8.945123 0.385598,6.63704 -5.335441,12.13222 -11.892996,12.13222 -2.232542,0 -4.350192,-0.69014 -6.094047,-1.95003"
       style="fill:#777777;fill-opacity:1;stroke-width:0.413411"
       id="path3442" /><path
       d="m 102.73025,50.104277 c 0,0 9.69271,9.691929 17.3748,-1.930359 3.99765,-6.049979 1.28743,-11.943358 -2.97462,-16.016548 L 98.77982,14.087699 c -1.032463,-0.880585 -2.619717,-0.880585 -3.654541,0 L 76.511047,32.15737 c -3.66241,3.832386 -6.781832,9.952403 -2.738545,16.016548 7.722224,11.582154 17.374018,1.930359 17.374018,1.930359 0,4.947479 -1.408619,11.305939 -1.820187,13.051367 a 0.37851718,0.37851718 0 0 0 0.380092,0.461145 h 14.465495 a 0.37615638,0.37615638 0 0 0 0.37773,-0.459571 c -0.40921,-1.750936 -1.82019,-8.136938 -1.82019,-13.052941"
       style="fill:#777777;fill-opacity:1;stroke-width:0.413411"
       id="path3451" /><path
       d="M 96.965401,71.762371 76.819775,96.944394 96.965401,122.12642 117.11101,96.944394 Z"
       style="fill:#dd0022;fill-opacity:1;stroke-width:0.413411"
       id="path3424" /><path
       id="path3442-6"
       style="fill:#ffffff;fill-opacity:0.2;stroke-width:0.413411"
       d="m 38.451131,71.762638 c -6.307181,0.04186 -11.40765,5.168737 -11.40765,11.486343 a 11.434209,11.434209 0 0 0 2.711002,7.405088 c -2.642536,-0.64214 -5.598084,-0.482393 -8.785179,1.51879 -3.175292,1.991737 -5.557357,5.202648 -5.78793,8.944531 -0.411567,6.65513 5.290395,12.17393 11.862107,12.17393 2.264017,0 4.315769,-0.66398 6.091885,-1.95062 0,4.40685 -1.234707,8.91837 -1.656505,10.3325 a 0.35412211,0.35412211 0 0 0 0.346253,0.45348 h 6.718483 V 71.763622 c -0.03074,-3.8e-5 -0.06179,-0.0012 -0.09247,-9.84e-4 z" /><path
       id="path3451-5"
       style="fill:#ffffff;fill-opacity:0.2;stroke-width:0.413411"
       d="m 96.938975,13.428244 c -0.650301,0.0032 -1.300365,0.222075 -1.813892,0.659061 L 76.511047,32.15737 c -3.662406,3.832382 -6.781826,9.952017 -2.738545,16.016156 7.722216,11.582141 17.37461,1.929964 17.37461,1.929964 0,4.947476 -1.409211,11.305942 -1.820779,13.051367 a 0.37851718,0.37851718 0 0 0 0.380682,0.461344 h 7.23196 z" /><path
       id="path3424-8"
       style="fill:#ffffff;fill-opacity:0.333333;stroke-width:0.413411"
       d="m 96.934897,71.762377 -20.145614,25.182017 20.145614,25.182016 0.03049,-0.0384 V 71.80074 Z" /></g></svg>
