<?xml version="1.0" encoding="UTF-8" standalone="no"?>
<!-- Created with Inkscape (http://www.inkscape.org/) -->

<svg
   width="512"
   height="512"
   viewBox="0 0 135.46665 135.46665"
   version="1.1"
   id="svg5"
   xml:space="preserve"
   inkscape:version="1.2.2 (b0a84865, 2022-12-01)"
   sodipodi:docname="logo.svg"
   inkscape:export-filename="logo.png"
   inkscape:export-xdpi="96"
   inkscape:export-ydpi="96"
   xmlns:inkscape="http://www.inkscape.org/namespaces/inkscape"
   xmlns:sodipodi="http://sodipodi.sourceforge.net/DTD/sodipodi-0.dtd"
   xmlns:xlink="http://www.w3.org/1999/xlink"
   xmlns="http://www.w3.org/2000/svg"
   xmlns:svg="http://www.w3.org/2000/svg"><sodipodi:namedview
     id="namedview7"
     pagecolor="#505050"
     bordercolor="#eeeeee"
     borderopacity="1"
     inkscape:showpageshadow="0"
     inkscape:pageopacity="0"
     inkscape:pagecheckerboard="0"
     inkscape:deskcolor="#505050"
     inkscape:document-units="mm"
     showgrid="false"
     showguides="true"
     inkscape:zoom="1"
     inkscape:cx="260.49999"
     inkscape:cy="261.49999"
     inkscape:window-width="1652"
     inkscape:window-height="1051"
     inkscape:window-x="76"
     inkscape:window-y="38"
     inkscape:window-maximized="1"
     inkscape:current-layer="layer1" /><defs
     id="defs2"><linearGradient
       inkscape:collect="always"
       id="linearGradient1955"><stop
         style="stop-color:#ffffff;stop-opacity:0.16742082;"
         offset="0"
         id="stop1951" /><stop
         style="stop-color:#ffffff;stop-opacity:0.04977376;"
         offset="1"
         id="stop1953" /></linearGradient><linearGradient
       inkscape:collect="always"
       id="linearGradient817"><stop
         style="stop-color:#331155;stop-opacity:1;"
         offset="0"
         id="stop813" /><stop
         style="stop-color:#111111;stop-opacity:1;"
         offset="1"
         id="stop815" /></linearGradient><radialGradient
       inkscape:collect="always"
       xlink:href="#linearGradient817"
       id="radialGradient888"
       cx="67.73333"
       cy="67.73333"
       fx="67.73333"
       fy="67.73333"
       r="67.73333"
       gradientUnits="userSpaceOnUse" /><radialGradient
       inkscape:collect="always"
       xlink:href="#linearGradient1955"
       id="radialGradient888-2"
       cx="67.73333"
       cy="67.73333"
       fx="67.73333"
       fy="67.73333"
       r="67.73333"
       gradientUnits="userSpaceOnUse" /></defs><g
     inkscape:label="Layer 1"
     inkscape:groupmode="layer"
     id="layer1"><rect
       style="fill:url(#radialGradient888);stroke-width:0.264999;stop-color:#000000;fill-opacity:1"
       id="rect234"
       width="135.46666"
       height="135.46666"
       x="0"
       y="0" /><path
       id="rect234-7"
       style="fill:url(#radialGradient888-2);fill-opacity:1;stroke-width:0.264999;stop-color:#000000"
       d="M 28.627193,0 67.733333,67.733333 48.002755,0 Z M 67.733333,67.733333 84.318884,0 H 67.733333 Z m 0,0 L 132.59449,0 h -25.75502 z m 0,0 67.733337,-19.730578 V 28.627193 Z m 0,0 67.733337,16.585551 V 67.733333 Z m 0,0 67.733337,64.860637 v -25.7545 z m 0,0 19.730579,67.733337 h 19.375558 z m 0,0 -16.585551,67.733337 h 16.585551 z m 0,0 L 2.8726929,135.46667 H 28.627193 Z m 0,0 L 0,87.463912 v 19.375558 z m 0,0 L 0,51.147782 v 16.585551 z m 0,0 L 0,2.8726929 V 28.627193 Z" /><path
       d="M 96.03278,73.376071 77.878866,96.068455 96.03278,118.76085 114.18669,96.068455 Z"
       style="fill:#000000;fill-opacity:1;stroke-width:0.413411"
       id="path3424-6" /><path
       d="m 48.233487,109.04147 c 0,4.02081 1.109799,8.04161 1.492022,9.30955 A 0.31911157,0.31911157 0 0 1 49.41349,118.7609 H 37.332636 a 0.31911157,0.31911157 0 0 1 -0.312021,-0.40846 c 0.380099,-1.27432 1.492734,-5.33981 1.492734,-9.31097 -1.600521,1.15944 -3.449951,1.75724 -5.490137,1.75724 -5.922001,0 -11.060408,-4.97317 -10.689529,-10.970347 0.207777,-3.371953 2.355044,-6.265231 5.21641,-8.060055 2.872004,-1.803337 5.534813,-1.947291 7.916095,-1.368637 a 10.303757,10.303757 0 0 1 -2.442976,-6.672976 c 0,-6.392158 5.795065,-11.431285 12.416985,-10.150584 4.145613,0.800616 7.440262,4.207308 8.135216,8.370651 0.541072,3.230118 -0.422644,6.236149 -2.294057,8.452909 2.397591,-0.581491 5.081676,-0.431155 7.97637,1.405511 2.847895,1.808298 4.988068,4.694485 5.183791,8.060768 0.347476,5.98086 -4.807948,10.93276 -10.717186,10.93276 -2.01182,0 -3.920107,-0.62191 -5.491554,-1.75724"
       style="fill:#000000;fill-opacity:1;stroke-width:0.413411"
       id="path3442-1" /><path
       d="m 100.27399,53.85922 c 0,0 8.73443,8.73373 15.65702,-1.739512 3.60242,-5.451844 1.16015,-10.762569 -2.68053,-14.43306 l -16.536366,-16.2832 c -0.930388,-0.793525 -2.360717,-0.793525 -3.293232,0 l -16.773922,16.2832 c -3.300323,3.453494 -6.111341,8.968451 -2.467797,14.43306 6.958761,10.437076 15.656323,1.739512 15.656323,1.739512 0,4.458343 -1.269355,10.188169 -1.640233,11.761034 a 0.3410948,0.3410948 0 0 0 0.342514,0.415554 h 13.035363 a 0.3389674,0.3389674 0 0 0 0.34038,-0.414135 c -0.36875,-1.577829 -1.64023,-7.332474 -1.64023,-11.762453"
       style="fill:#000000;fill-opacity:1;stroke-width:0.413411"
       id="path3451-8" /><path
       d="m 43.38654,29.457808 c 1.751568,-4.788092 5.458227,-8.728056 10.112291,-8.728056 3.916563,0 7.406935,1.976363 9.758431,5.236974 2.95001,4.09172 5.035581,13.199875 -1.421109,20.129559 -3.276212,3.51661 -18.449613,20.018223 -18.449613,20.018223 0,0 -15.173401,-16.502323 -18.449613,-20.018223 -6.45669,-6.928976 -4.371828,-16.037839 -1.420401,-20.129559 2.351499,-3.261319 5.841869,-5.236974 9.757723,-5.236974 4.654065,0 8.360723,3.939964 10.112291,8.728056"
       style="font-variation-settings:normal;vector-effect:none;fill:#000000;fill-opacity:1;stroke-width:0.413409;stroke-linecap:butt;stroke-linejoin:miter;stroke-miterlimit:4;stroke-dasharray:none;stroke-dashoffset:0;stroke-opacity:1;-inkscape-stroke:none;stop-color:#000000"
       id="path3433-8" /><path
       d="m 41.479138,27.550406 c 1.751568,-4.788092 5.458227,-8.728056 10.112291,-8.728056 3.916563,0 7.406935,1.976363 9.758431,5.236974 2.95001,4.09172 5.035581,13.199875 -1.421109,20.129559 -3.276212,3.51661 -18.449613,20.018223 -18.449613,20.018223 0,0 -15.173401,-16.502323 -18.449613,-20.018223 -6.45669,-6.928976 -4.371828,-16.037839 -1.420402,-20.129559 2.3515,-3.261319 5.84187,-5.236974 9.757724,-5.236974 4.654065,0 8.360723,3.939964 10.112291,8.728056"
       style="font-variation-settings:normal;vector-effect:none;fill:#dd0022;fill-opacity:1;stroke-width:0.413409;stroke-linecap:butt;stroke-linejoin:miter;stroke-miterlimit:4;stroke-dasharray:none;stroke-dashoffset:0;stroke-opacity:1;-inkscape-stroke:none;stop-color:#000000"
       id="path3433" /><path
       id="path3433-4"
       style="fill:#ffffff;fill-opacity:0.333333;stroke-width:0.413409"
       d="m 31.366847,18.822349 c -3.91585,0 -7.406226,1.975659 -9.757724,5.236975 -2.951422,4.091716 -5.036637,13.200767 1.420047,20.129735 3.276208,3.515897 18.449967,20.018047 18.449967,20.018047 V 27.550051 C 39.72757,22.761965 36.02091,18.822349 31.366847,18.822349 Z" /><path
       d="m 46.326085,107.13406 c 0,4.0208 1.109799,8.04161 1.492022,9.30955 a 0.31911157,0.31911157 0 0 1 -0.31202,0.40987 H 35.425234 a 0.31911157,0.31911157 0 0 1 -0.312021,-0.40845 c 0.380099,-1.27432 1.492734,-5.33981 1.492734,-9.31097 -1.600521,1.15944 -3.449951,1.75724 -5.490137,1.75724 -5.922001,0 -11.060408,-4.97317 -10.689529,-10.970349 0.207777,-3.371943 2.355044,-6.265221 5.21641,-8.060045 2.872004,-1.803337 5.534813,-1.947291 7.916095,-1.368637 A 10.303757,10.303757 0 0 1 31.11581,81.819293 c 0,-6.392158 5.795065,-11.431285 12.416985,-10.150584 4.145613,0.800616 7.440262,4.207308 8.135216,8.370651 0.541072,3.230118 -0.422644,6.236149 -2.294057,8.452909 2.397591,-0.581491 5.081675,-0.431155 7.97637,1.405511 2.847895,1.808298 4.988068,4.694485 5.183791,8.060757 0.347476,5.980863 -4.807949,10.932763 -10.717186,10.932763 -2.01182,0 -3.920107,-0.62191 -5.491555,-1.75724"
       style="fill:#777777;fill-opacity:1;stroke-width:0.413411"
       id="path3442" /><path
       d="m 99.320281,51.951818 c 0,0 8.734429,8.73373 15.657029,-1.739512 3.60242,-5.451844 1.16015,-10.762569 -2.68053,-14.43306 l -16.536367,-16.2832 c -0.930388,-0.793525 -2.360717,-0.793525 -3.293232,0 l -16.773922,16.2832 c -3.300323,3.453494 -6.111341,8.968451 -2.467797,14.43306 6.958761,10.437076 15.656323,1.739512 15.656323,1.739512 0,4.458343 -1.269355,10.188169 -1.640233,11.761034 a 0.3410948,0.3410948 0 0 0 0.342514,0.415554 h 13.035354 a 0.3389674,0.3389674 0 0 0 0.34038,-0.414135 c -0.36875,-1.577829 -1.640231,-7.332474 -1.640231,-11.762453"
       style="fill:#777777;fill-opacity:1;stroke-width:0.413411"
       id="path3451" /><path
       d="M 94.125378,71.468669 75.971464,94.161053 94.125378,116.85344 112.27928,94.161053 Z"
       style="fill:#dd0022;fill-opacity:1;stroke-width:0.413411"
       id="path3424" /><path
       id="path3442-6"
       style="fill:#ffffff;fill-opacity:0.2;stroke-width:0.413411"
       d="M 41.396165,71.468909 C 35.712548,71.506631 31.11634,76.126635 31.11634,81.819647 a 10.303757,10.303757 0 0 0 2.442977,6.672978 c -2.38128,-0.578654 -5.044625,-0.434701 -7.916626,1.368634 -2.861364,1.794822 -5.007924,4.688284 -5.215702,8.060223 -0.370877,5.997168 4.767357,10.970348 10.689351,10.970348 2.040184,0 3.889088,-0.59834 5.489607,-1.75777 0,3.97116 -1.112637,8.03665 -1.492734,9.31097 a 0.31911157,0.31911157 0 0 0 0.312021,0.40864 h 6.054255 V 71.469796 c -0.0277,-3.4e-5 -0.05568,-0.0011 -0.08333,-8.87e-4 z" /><path
       id="path3451-5"
       style="fill:#ffffff;fill-opacity:0.2;stroke-width:0.413411"
       d="m 94.101565,18.901789 c -0.586009,0.0029 -1.171804,0.200119 -1.634561,0.593902 L 75.693259,35.779246 c -3.30032,3.45349 -6.111336,8.968103 -2.467797,14.432707 6.958754,10.437064 15.656857,1.739156 15.656857,1.739156 0,4.45834 -1.269889,10.188172 -1.640767,11.761034 a 0.3410948,0.3410948 0 0 0 0.343046,0.415733 h 6.516967 z" /><path
       id="path3424-8"
       style="fill:#ffffff;fill-opacity:0.333333;stroke-width:0.413411"
       d="m 94.09789,71.468674 -18.153903,22.692379 18.153903,22.692377 0.02747,-0.0346 V 71.503245 Z" /></g></svg>
