<svg xmlns="http://www.w3.org/2000/svg" viewBox="0 0 512 512">
  <path fill="#fff" d="m208.242 44.629-52.058 95.205 95.207 52.059 17.271-31.586-42.424-23.198A143.26 143.26 0 0 1 256 134c78.638 0 142 63.362 142 142s-63.362 142-142 142-142-63.362-142-142c0-16.46 2.785-32.247 7.896-46.928l-32.32-16.16C82.106 232.535 78 253.798 78 276c0 98.093 79.907 178 178 178s178-79.907 178-178S354.093 98 256 98c-13.103 0-25.875 1.44-38.18 4.148l22.008-40.25-31.586-17.27zm104.27 130.379L247 273.275V388h18V278.725l62.488-93.733z"/>
</svg>
