<svg xmlns="http://www.w3.org/2000/svg" xml:space="preserve" width="100" height="100" viewBox="0 0 64 64">
  <path d="M38.834 50.294c0 5.67 1.565 11.34 2.104 13.128a.45.45 0 0 1-.44.578H23.462a.45.45 0 0 1-.44-.576c.536-1.797 2.105-7.53 2.105-13.13-2.257 1.635-4.865 2.478-7.742 2.478-8.351 0-15.597-7.013-15.074-15.47.293-4.755 3.321-8.835 7.356-11.366 4.05-2.543 7.805-2.746 11.163-1.93a14.53 14.53 0 0 1-3.445-9.41c0-9.014 8.172-16.12 17.51-14.314 5.846 1.129 10.492 5.933 11.472 11.804.763 4.555-.596 8.794-3.235 11.92 3.381-.82 7.166-.608 11.248 1.982 4.016 2.55 7.034 6.62 7.31 11.367.49 8.434-6.78 15.417-15.113 15.417-2.837 0-5.528-.877-7.744-2.478" />
</svg>
