<svg xmlns="http://www.w3.org/2000/svg" width="512" height="256" viewBox="0 0 135.467 67.733">
  <path d="m86.835-242.927 89.517 181.382L376.52-32.459 231.677 108.727l34.193 199.359L86.835 213.96-92.2 308.086l34.192-199.359L-202.85-32.459-2.683-61.545Z" style="fill:#e9ddaf;fill-opacity:.4983165;stroke-width:3.78525;-inkscape-stroke:none;stop-color:#000" transform="translate(58.25 26.532) scale(.10922)"/>
  <path d="m86.835-242.927 89.517 181.382L376.52-32.459 231.677 108.727l34.193 199.359L86.835 213.96-92.2 308.086l34.192-199.359L-202.85-32.459-2.683-61.545Z" style="fill:#decd87;fill-opacity:.454546;stroke-width:5.03268;-inkscape-stroke:none;stop-color:#000" transform="translate(16.663 42.426) scale(.08215)"/>
  <path d="m86.835-242.927 89.517 181.382L376.52-32.459 231.677 108.727l34.193 199.359L86.835 213.96-92.2 308.086l34.192-199.359L-202.85-32.459-2.683-61.545Z" style="fill:#decd87;fill-opacity:.454546;stroke-width:5.03268;-inkscape-stroke:none;stop-color:#000" transform="translate(104.537 42.426) scale(.08215)"/>
  <path d="m23.796 22.47-7.353 14.9L0 39.76l11.898 11.597-2.809 16.376 14.707-7.731Zm87.874 0-7.353 14.9-16.442 2.39 11.898 11.597-2.81 16.376 14.708-7.732Z" style="fill:#decd87;fill-opacity:.454546;stroke-width:.41341;-inkscape-stroke:none;stop-color:#000"/>
  <path d="m67.733 0-9.776 19.81-21.862 3.177 15.82 15.42-3.735 21.772L67.733 49.9Z" style="fill:#e9ddaf;fill-opacity:.498317;stroke-width:.41341;-inkscape-stroke:none;stop-color:#000"/>
</svg>
